<svg width="40" height="40" viewBox="0 0 40 40" fill="none" xmlns="http://www.w3.org/2000/svg">
<g filter="url(#filter0_d)">
<path d="M20 0.833252C31.05 0.833252 40 9.63325 40 20.4866C40 29.1716 34.27 36.5366 26.325 39.1333C25.325 39.3183 24.9583 38.7099 24.9583 38.1883C24.9583 37.7216 24.975 36.4849 24.9833 34.8466C30.5467 36.0316 31.72 32.2099 31.72 32.2099C32.63 29.9416 33.945 29.3349 33.945 29.3349C35.7567 28.1166 33.805 28.1416 33.805 28.1416C31.7967 28.2783 30.7417 30.1666 30.7417 30.1666C28.9583 33.1716 26.06 32.3033 24.9167 31.8016C24.7367 30.5299 24.2217 29.6649 23.65 29.1733C28.0917 28.6816 32.76 26.9916 32.76 19.4616C32.76 17.3166 31.985 15.5633 30.7017 14.1883C30.9267 13.6916 31.6017 11.6933 30.5267 8.98659C30.5267 8.98659 28.8517 8.45992 25.0267 11.0016C23.4267 10.5649 21.7267 10.3483 20.0267 10.3383C18.3267 10.3483 16.6267 10.5649 15.0267 11.0016C11.2267 8.45992 9.55168 8.98659 9.55168 8.98659C8.47668 11.6933 9.15168 13.6916 9.35168 14.1883C8.07668 15.5633 7.30168 17.3166 7.30168 19.4616C7.30168 27.0116 11.9767 28.6733 16.4267 29.1566C15.7267 29.7466 15.0767 30.9516 15.0767 32.7933C15.0767 35.4233 15.1017 37.5366 15.1017 38.1749C15.1017 38.6899 14.7517 39.3049 13.7267 39.1083C5.72502 36.5283 1.52588e-05 29.1583 1.52588e-05 20.4866C1.52588e-05 9.63325 8.95501 0.833252 20 0.833252Z" fill="#B3B9FF"/>
</g>
<defs>
<filter id="filter0_d" x="-4" y="0.833252" width="48" height="46.3339" filterUnits="userSpaceOnUse" color-interpolation-filters="sRGB">
<feFlood flood-opacity="0" result="BackgroundImageFix"/>
<feColorMatrix in="SourceAlpha" type="matrix" values="0 0 0 0 0 0 0 0 0 0 0 0 0 0 0 0 0 0 127 0"/>
<feOffset dy="4"/>
<feGaussianBlur stdDeviation="2"/>
<feColorMatrix type="matrix" values="0 0 0 0 0 0 0 0 0 0 0 0 0 0 0 0 0 0 0.25 0"/>
<feBlend mode="normal" in2="BackgroundImageFix" result="effect1_dropShadow"/>
<feBlend mode="normal" in="SourceGraphic" in2="effect1_dropShadow" result="shape"/>
</filter>
</defs>
</svg>
